<svg width="21" height="20" viewBox="0 0 21 20" fill="none" xmlns="http://www.w3.org/2000/svg">
<path d="M19.0046 8.36775H18.3333V8.33317H10.8333V11.6665H15.5429C14.8558 13.6069 13.0096 14.9998 10.8333 14.9998C8.07208 14.9998 5.83333 12.7611 5.83333 9.99984C5.83333 7.23859 8.07208 4.99984 10.8333 4.99984C12.1079 4.99984 13.2675 5.48067 14.1504 6.26609L16.5075 3.909C15.0192 2.52192 13.0283 1.6665 10.8333 1.6665C6.23125 1.6665 2.5 5.39775 2.5 9.99984C2.5 14.6019 6.23125 18.3332 10.8333 18.3332C15.4354 18.3332 19.1667 14.6019 19.1667 9.99984C19.1667 9.44109 19.1092 8.89567 19.0046 8.36775Z" fill="#FFC107"/>
<path d="M3.46094 6.12109L6.19885 8.129C6.93969 6.29484 8.73385 4.99984 10.8334 4.99984C12.108 4.99984 13.2676 5.48067 14.1505 6.26609L16.5076 3.909C15.0193 2.52192 13.0284 1.6665 10.8334 1.6665C7.6326 1.6665 4.85677 3.47359 3.46094 6.12109Z" fill="#FF3D00"/>
<path d="M10.8338 18.3331C12.9863 18.3331 14.9421 17.5094 16.4209 16.1698L13.8417 13.9873C13.005 14.621 11.965 14.9998 10.8338 14.9998C8.66629 14.9998 6.82587 13.6177 6.13254 11.689L3.41504 13.7827C4.79421 16.4815 7.59504 18.3331 10.8338 18.3331Z" fill="#4CAF50"/>
<path d="M19.0043 8.36759H18.333V8.33301H10.833V11.6663H15.5426C15.2126 12.5984 14.613 13.4022 13.8397 13.9876C13.8401 13.9872 13.8405 13.9872 13.8409 13.9868L16.4201 16.1693C16.2376 16.3351 19.1663 14.1663 19.1663 9.99967C19.1663 9.44092 19.1088 8.89551 19.0043 8.36759Z" fill="#1976D2"/>
</svg>
